<svg width="964" height="131" viewBox="0 0 964 131" fill="none" xmlns="http://www.w3.org/2000/svg">
<path d="M6.46744e-07 43.3386V87.2836C0.000969406 91.0337 0.988868 94.7175 2.86444 97.9649C4.74002 101.212 7.4372 103.909 10.685 105.784L48.74 127.756C51.9891 129.63 55.674 130.617 59.425 130.617C63.176 130.617 66.8609 129.63 70.11 127.756L108.175 105.789C111.423 103.914 114.12 101.217 115.996 97.9699C117.871 94.7225 118.859 91.0387 118.86 87.2886V43.3386C118.859 39.5885 117.871 35.9047 115.996 32.6574C114.12 29.41 111.423 26.7134 108.175 24.8386L70.11 2.86111C66.8609 0.98672 63.176 0 59.425 0C55.674 0 51.9891 0.98672 48.74 2.86111L10.675 24.8336C7.42832 26.7101 4.73264 29.408 2.85883 32.6562C0.985015 35.9045 -0.000921839 39.5886 6.46744e-07 43.3386Z" fill="#FCFCFC"/>
<path d="M71.7225 34.1761V59.1636C71.727 61.7457 71.894 64.325 72.2225 66.8861C72.5695 69.5825 73.0627 72.2581 73.7 74.9011L73.405 75.2961C72.42 73.3278 71.5342 71.6228 70.7475 70.1811C69.9608 68.7394 69.1033 67.2828 68.175 65.8111C67.2567 64.3361 66.1091 62.5819 64.7325 60.5486L47.025 34.1836H31.385V96.4461H47.1225V72.4461C47.1225 69.8877 47.0242 67.2478 46.8275 64.5261C46.5829 61.541 46.0222 58.5903 45.155 55.7236L45.45 55.3286C46.435 57.2969 47.3208 59.0019 48.1075 60.4436C48.8941 61.8853 49.75 63.3278 50.675 64.7711C51.5933 66.2128 52.7408 67.9828 54.1175 70.0811L71.825 96.4461H87.465V34.1761H71.7225Z" fill="#1E1E1E"/>
<path d="M6.46744e-07 43.3386V87.2836C0.000969406 91.0337 0.988868 94.7175 2.86444 97.9649C4.74002 101.212 7.4372 103.909 10.685 105.784L48.74 127.756C51.9891 129.63 55.674 130.617 59.425 130.617C63.176 130.617 66.8609 129.63 70.11 127.756L108.175 105.789C111.423 103.914 114.12 101.217 115.996 97.9699C117.871 94.7225 118.859 91.0387 118.86 87.2886V43.3386C118.859 39.5885 117.871 35.9047 115.996 32.6574C114.12 29.41 111.423 26.7134 108.175 24.8386L70.11 2.86111C66.8609 0.98672 63.176 0 59.425 0C55.674 0 51.9891 0.98672 48.74 2.86111L10.675 24.8336C7.42832 26.7101 4.73264 29.408 2.85883 32.6562C0.985015 35.9045 -0.000921839 39.5886 6.46744e-07 43.3386Z" fill="#FCFCFC"/>
<path d="M72.0515 34V59.2931C72.056 61.9046 72.2288 64.5133 72.5686 67.1036C72.9277 69.8323 73.437 72.5401 74.0943 75.2151L73.7763 75.6021C72.7574 73.6123 71.8411 71.8873 71.0274 70.4271C70.2137 68.9668 69.3319 67.4906 68.382 65.9983C67.4338 64.5026 66.2469 62.727 64.8212 60.6716L46.5101 34H30.3325V97H46.6239V72.7186C46.6239 70.132 46.5222 67.4611 46.3188 64.7058C46.0633 61.6852 45.4834 58.6994 44.5888 55.7976L44.8939 55.4005C45.9111 57.3919 46.8265 59.1169 47.6402 60.5754C48.4539 62.034 49.3357 63.4934 50.2856 64.9537C51.2303 66.4072 52.4147 68.1979 53.8387 70.3259L72.1523 97H88.3325V34H72.0515Z" fill="#1E1E1E"/>
<path d="M44.8836 55.398C44.8836 55.398 34.0692 33.9747 30.3325 34V65.9831C30.3325 65.9831 37.418 53.8652 44.8836 55.398Z" fill="url(#paint0_linear_198_47)"/>
<path d="M73.7764 75.602C73.7764 75.602 84.5908 97.0227 88.3274 97V65.0143C88.3274 65.0143 81.2471 77.1348 73.7764 75.602Z" fill="url(#paint1_linear_198_47)"/>
<path d="M228.06 27.3213V57.8213C228.062 60.9708 228.262 64.117 228.66 67.2413C229.082 70.5312 229.681 73.7959 230.455 77.0213L230.095 77.5213C228.895 75.1213 227.815 73.0413 226.855 71.2813C225.895 69.5213 224.855 67.7413 223.735 65.9413C222.615 64.1413 221.215 62.0013 219.535 59.5213L197.955 27.3213H178.86V103.321H198.06V74.0213C198.06 70.9013 197.94 67.6813 197.7 64.3613C197.4 60.7195 196.716 57.1195 195.66 53.6213L196.02 53.1213C197.22 55.5213 198.3 57.6013 199.26 59.3613C200.22 61.1213 201.26 62.8813 202.38 64.6413C203.5 66.4013 204.9 68.568 206.58 71.1413L228.18 103.321H247.26V27.3213H228.06Z" fill="#FCFCFC"/>
<path d="M290.225 57.3213H261.66V72.8863H288.66H313.11V57.3213H290.225ZM280.855 87.7013H261.66V103.321H318.06V87.7213L280.855 87.7013ZM261.66 27.3213V42.8963H290.225V42.9213H318.06V27.3213H261.66Z" fill="#FCFCFC"/>
<rect x="260.86" y="57.236" width="53" height="16" fill="#4F9746"/>
<path d="M327.655 60.8963V103.321H346.855V60.8963H327.655Z" fill="#FCFCFC"/>
<path d="M395.335 58.4213V74.0213C397.575 74.1013 400.015 74.0813 402.655 73.9613C405.295 73.8413 407.728 73.6279 409.955 73.3213L410.195 73.6813C409.943 76.0729 409.823 78.4765 409.835 80.8813V87.7213C408.767 87.9325 407.683 88.0529 406.595 88.0813C405.075 88.1613 403.555 88.2213 402.035 88.2613C400.515 88.3013 399.395 88.3213 398.675 88.3213C393.075 88.3213 388.775 87.7013 385.775 86.4613C382.775 85.2213 380.735 82.9013 379.655 79.5013C378.575 76.1013 378.035 71.1613 378.035 64.6813C378.035 58.1213 379.035 53.288 381.035 50.1813C382.961 47.1154 385.989 44.9039 389.495 44.0013C393.669 42.9359 397.967 42.4314 402.275 42.5013C405.635 42.5013 408.968 42.6679 412.275 43.0013C415.643 43.3313 418.984 43.8927 422.275 44.6813L422.635 44.4413V28.5413C418.823 27.6656 414.953 27.0641 411.055 26.7413C407.175 26.4079 403.315 26.2413 399.475 26.2413C393.674 26.1756 387.882 26.7186 382.195 27.8613C377.155 28.9413 372.895 30.8613 369.415 33.6213C365.935 36.3813 363.315 40.2813 361.555 45.3213C359.755 50.3613 358.855 56.8013 358.855 64.6413C358.855 74.308 359.975 82.048 362.215 87.8613C364.455 93.6746 368.288 97.8746 373.715 100.461C379.155 103.061 386.675 104.361 396.275 104.361C403.475 104.361 409.415 103.901 414.095 102.981C418.413 102.175 422.621 100.866 426.635 99.0813V58.3213L395.335 58.4213Z" fill="#FCFCFC"/>
<path d="M487.855 27.3213V56.3613H459.055V27.3213H439.855V103.321H459.055V71.9813H487.855V103.321H507.055V27.3213H487.855Z" fill="#FCFCFC"/>
<path d="M583.795 73.5413C582.461 70.9013 580.241 68.8813 577.135 67.4813C574.028 66.0813 569.748 65.1813 564.295 64.7813V64.4213C571.655 63.7813 576.675 61.9213 579.355 58.8413C582.035 55.7613 583.368 51.428 583.355 45.8413C583.355 41.7613 582.595 38.3613 581.075 35.6413C579.555 32.9213 576.935 30.8613 573.215 29.4613C569.508 28.0346 564.335 27.3213 557.695 27.3213H521.455V103.321H558.895C568.895 103.321 575.875 101.681 579.835 98.4013C583.795 95.1213 585.775 90.2879 585.775 83.9013C585.775 79.6346 585.115 76.1813 583.795 73.5413ZM540.655 42.4613H552.415C556.335 42.4613 559.168 42.9813 560.915 44.0213C562.661 45.0613 563.542 47.0213 563.555 49.9013C563.555 52.8613 562.675 54.8413 560.915 55.8413C559.155 56.8413 556.321 57.3413 552.415 57.3413H540.655V42.4613ZM563.335 86.6813C561.575 87.7613 558.742 88.3013 554.835 88.3013H540.655V73.0613H554.815C558.735 73.0613 561.568 73.5613 563.315 74.5613C565.061 75.5613 565.942 77.5813 565.955 80.6213C565.955 83.5813 565.082 85.6013 563.335 86.6813Z" fill="#FCFCFC"/>
<path d="M666.955 46.9613C665.795 41.9613 663.815 37.9413 661.015 34.9013C658.215 31.8613 654.415 29.6613 649.615 28.3013C644.815 26.9413 638.775 26.2613 631.495 26.2613C621.828 26.2613 614.288 27.5013 608.875 29.9813C606.249 31.1527 603.884 32.8398 601.923 34.9424C599.961 37.045 598.442 39.5203 597.455 42.2213C595.255 47.8879 594.155 55.568 594.155 65.2613C594.155 72.5413 594.755 78.6813 595.955 83.6813C597.155 88.6813 599.155 92.7013 601.955 95.7413C604.755 98.7813 608.555 100.981 613.355 102.341C618.155 103.701 624.195 104.381 631.475 104.381C638.755 104.381 644.795 103.701 649.595 102.341C654.395 100.981 658.195 98.7813 660.995 95.7413C663.795 92.7013 665.775 88.6813 666.935 83.6813C668.095 78.6813 668.675 72.5413 668.675 65.2613C668.688 58.0613 668.115 51.9613 666.955 46.9613ZM648.175 78.8813C647.295 82.1213 645.575 84.3813 643.015 85.6613C640.455 86.9413 636.621 87.5813 631.515 87.5813C626.475 87.5813 622.655 86.9413 620.055 85.6613C617.455 84.3813 615.695 82.1213 614.775 78.8813C613.855 75.6413 613.395 71.1013 613.395 65.2613C613.395 59.5013 613.855 55.0213 614.775 51.8213C615.695 48.6213 617.455 46.3613 620.055 45.0413C622.655 43.708 626.475 43.0413 631.515 43.0413C636.635 43.0413 640.468 43.708 643.015 45.0413C645.561 46.3746 647.281 48.6346 648.175 51.8213C649.055 55.0213 649.495 59.5013 649.495 65.2613C649.495 71.1013 649.055 75.6413 648.175 78.8813Z" fill="#FCFCFC"/>
<path d="M727.255 27.3213V71.7213C727.255 75.8013 726.895 79.0013 726.175 81.3213C725.455 83.6413 724.175 85.2613 722.275 86.1813C720.375 87.1013 717.69 87.5613 714.175 87.5613C710.408 87.5613 707.488 87.1013 705.415 86.1813C704.387 85.7302 703.469 85.0624 702.724 84.2236C701.978 83.3848 701.422 82.3947 701.095 81.3213C700.292 78.988 699.892 75.7879 699.895 71.7213V27.3213H680.695V72.0813C680.695 79.9213 681.655 86.2013 683.575 90.9213C684.492 93.2234 685.862 95.3178 687.604 97.0803C689.345 98.8428 691.424 100.237 693.715 101.181C698.555 103.301 705.375 104.361 714.175 104.361C722.651 104.361 729.212 103.301 733.855 101.181C736.082 100.202 738.093 98.7916 739.772 97.0305C741.451 95.2695 742.764 93.193 743.635 90.9213C745.511 86.2013 746.452 79.9213 746.455 72.0813V27.3213H727.255Z" fill="#FCFCFC"/>
<path d="M821.035 93.4013C818.668 89.9213 816.288 86.7013 813.895 83.7413C811.502 80.7813 809.302 78.6613 807.295 77.3813L807.41 77.0213C812.458 75.9514 816.892 72.9606 819.775 68.6813C822.895 64.2413 824.453 58.9079 824.45 52.6813C824.45 44.3479 822.27 38.048 817.91 33.7813C813.55 29.5146 806.612 27.3613 797.095 27.3213H760.855V103.321H780.055V78.9413H782.555C784.017 78.9083 785.48 78.9885 786.93 79.1813C787.855 79.3444 788.7 79.8084 789.335 80.5013C790.323 81.6328 791.225 82.8361 792.035 84.1013L804.99 103.301H827.315V103.181C825.485 100.141 823.392 96.8813 821.035 93.4013ZM802.315 60.9413C800.741 62.528 797.955 63.3213 793.955 63.3213H780.055V42.9213H793.955C797.955 42.9213 800.736 43.7213 802.3 45.3213C803.863 46.9213 804.643 49.5213 804.64 53.1213C804.65 56.7346 803.875 59.3413 802.315 60.9413Z" fill="#FCFCFC"/>
<path d="M857.455 86.9813V27.3213H838.255V103.321H893.455V86.9813H857.455Z" fill="#FCFCFC"/>
<path d="M942.05 27.3213C939.57 33.8013 937.59 38.9813 936.11 42.8613L932.61 51.9813C931.77 54.1813 931.103 55.9613 930.61 57.3213C930.117 58.6813 929.596 60.1213 929.05 61.6413H928.55C927.99 60.1213 927.47 58.6813 926.99 57.3213C926.51 55.9613 925.843 54.1813 924.99 51.9813L921.49 42.8613C920.01 38.9813 918.03 33.8013 915.55 27.3213H894.55V27.6813L919.15 79.7613V103.261H938.455V79.7613L963.055 27.6813V27.3213H942.05Z" fill="#FCFCFC"/>
<path d="M327.655 27.3413H346.855V40.2463L327.655 27.3413Z" fill="#4F9746"/>
<defs>
<linearGradient id="paint0_linear_198_47" x1="27.3325" y1="25" x2="38.3325" y2="55.5" gradientUnits="userSpaceOnUse">
<stop stop-color="#4F9746"/>
<stop offset="1" stop-color="#4F9746" stop-opacity="0"/>
</linearGradient>
<linearGradient id="paint1_linear_198_47" x1="80.3326" y1="75.9999" x2="91.8326" y2="108" gradientUnits="userSpaceOnUse">
<stop stop-color="#4F9746" stop-opacity="0"/>
<stop offset="1" stop-color="#4F9746"/>
</linearGradient>
</defs>
</svg>
