<svg width="785" height="79" viewBox="0 0 785 79" fill="none" xmlns="http://www.w3.org/2000/svg">
<path d="M49.2 1.08533V31.5853C49.2019 34.7348 49.4023 37.8811 49.8 41.0053C50.2222 44.2952 50.8214 47.56 51.595 50.7853L51.235 51.2853C50.035 48.8853 48.955 46.8053 47.995 45.0453C47.035 43.2853 45.995 41.5053 44.875 39.7053C43.755 37.9053 42.355 35.7653 40.675 33.2853L19.095 1.08533H0V77.0853H19.2V47.7853C19.2 44.6653 19.08 41.4453 18.84 38.1253C18.5397 34.4835 17.8559 30.8836 16.8 27.3853L17.16 26.8853C18.36 29.2853 19.44 31.3653 20.4 33.1253C21.36 34.8853 22.4 36.6453 23.52 38.4053C24.64 40.1653 26.04 42.332 27.72 44.9053L49.32 77.0853H68.4V1.08533H49.2Z" fill="#1E1E1E"/>
<path d="M111.365 31.0853H82.8V46.6503H109.8H134.25V31.0853H111.365ZM101.995 61.4653H82.8V77.0853H139.2V61.4853L101.995 61.4653ZM82.8 1.08533V16.6603H111.365V16.6853H139.2V1.08533H82.8Z" fill="#1E1E1E"/>
<rect x="82" y="31" width="53" height="16" fill="#4F9746"/>
<path d="M148.795 34.6604V77.0854H167.995V34.6604H148.795Z" fill="#1E1E1E"/>
<path d="M216.475 32.1853V47.7853C218.715 47.8653 221.155 47.8453 223.795 47.7253C226.435 47.6053 228.868 47.392 231.095 47.0853L231.335 47.4453C231.083 49.8369 230.963 52.2405 230.975 54.6453V61.4853C229.907 61.6965 228.823 61.817 227.735 61.8453C226.215 61.9253 224.695 61.9853 223.175 62.0253C221.655 62.0653 220.535 62.0853 219.815 62.0853C214.215 62.0853 209.915 61.4653 206.915 60.2253C203.915 58.9853 201.875 56.6653 200.795 53.2653C199.715 49.8653 199.175 44.9253 199.175 38.4453C199.175 31.8853 200.175 27.052 202.175 23.9453C204.101 20.8795 207.129 18.6679 210.635 17.7653C214.809 16.6999 219.107 16.1955 223.415 16.2653C226.775 16.2653 230.108 16.432 233.415 16.7653C236.783 17.0954 240.124 17.6567 243.415 18.4453L243.775 18.2053V2.30532C239.963 1.42966 236.093 0.828117 232.195 0.505319C228.315 0.171986 224.455 0.00531928 220.615 0.00531928C214.814 -0.0603748 209.023 0.482591 203.335 1.62531C198.295 2.70531 194.035 4.62532 190.555 7.38532C187.075 10.1453 184.455 14.0453 182.695 19.0853C180.895 24.1253 179.995 30.5653 179.995 38.4053C179.995 48.072 181.115 55.812 183.355 61.6253C185.595 67.4387 189.428 71.6387 194.855 74.2253C200.295 76.8253 207.815 78.1253 217.415 78.1253C224.615 78.1253 230.555 77.6653 235.235 76.7453C239.553 75.9389 243.761 74.63 247.775 72.8453V32.0853L216.475 32.1853Z" fill="#1E1E1E"/>
<path d="M308.995 1.08533V30.1253H280.195V1.08533H260.995V77.0853H280.195V45.7453H308.995V77.0853H328.195V1.08533H308.995Z" fill="#1E1E1E"/>
<path d="M404.935 47.3053C403.602 44.6653 401.382 42.6453 398.275 41.2453C395.168 39.8453 390.888 38.9453 385.435 38.5453V38.1853C392.795 37.5453 397.815 35.6853 400.495 32.6053C403.175 29.5253 404.508 25.192 404.495 19.6053C404.495 15.5253 403.735 12.1253 402.215 9.40533C400.695 6.68533 398.075 4.62533 394.355 3.22533C390.648 1.79866 385.475 1.08533 378.835 1.08533H342.595V77.0853H380.035C390.035 77.0853 397.015 75.4453 400.975 72.1653C404.935 68.8853 406.915 64.052 406.915 57.6653C406.915 53.3986 406.255 49.9453 404.935 47.3053ZM361.795 16.2253H373.555C377.475 16.2253 380.308 16.7453 382.055 17.7853C383.802 18.8253 384.682 20.7853 384.695 23.6653C384.695 26.6253 383.815 28.6053 382.055 29.6053C380.295 30.6053 377.462 31.1053 373.555 31.1053H361.795V16.2253ZM384.475 60.4453C382.715 61.5253 379.882 62.0653 375.975 62.0653H361.795V46.8253H375.955C379.875 46.8253 382.708 47.3253 384.455 48.3253C386.202 49.3253 387.082 51.3453 387.095 54.3853C387.095 57.3453 386.222 59.3653 384.475 60.4453Z" fill="#1E1E1E"/>
<path d="M488.095 20.7254C486.935 15.7254 484.955 11.7054 482.155 8.66539C479.355 5.62539 475.555 3.42538 470.755 2.06538C465.955 0.705384 459.915 0.0253906 452.635 0.0253906C442.968 0.0253906 435.428 1.26539 430.015 3.74539C427.389 4.91684 425.025 6.60392 423.063 8.70651C421.101 10.8091 419.582 13.2844 418.595 15.9854C416.395 21.652 415.295 29.3321 415.295 39.0254C415.295 46.3054 415.895 52.4454 417.095 57.4454C418.295 62.4454 420.295 66.4654 423.095 69.5054C425.895 72.5454 429.695 74.7454 434.495 76.1054C439.295 77.4654 445.335 78.1454 452.615 78.1454C459.895 78.1454 465.935 77.4654 470.735 76.1054C475.535 74.7454 479.335 72.5454 482.135 69.5054C484.935 66.4654 486.915 62.4454 488.075 57.4454C489.235 52.4454 489.815 46.3054 489.815 39.0254C489.828 31.8254 489.255 25.7254 488.095 20.7254ZM469.315 52.6454C468.435 55.8854 466.715 58.1454 464.155 59.4254C461.595 60.7054 457.762 61.3454 452.655 61.3454C447.615 61.3454 443.795 60.7054 441.195 59.4254C438.595 58.1454 436.835 55.8854 435.915 52.6454C434.995 49.4054 434.535 44.8654 434.535 39.0254C434.535 33.2654 434.995 28.7854 435.915 25.5854C436.835 22.3854 438.595 20.1254 441.195 18.8054C443.795 17.4721 447.615 16.8054 452.655 16.8054C457.775 16.8054 461.608 17.4721 464.155 18.8054C466.702 20.1387 468.422 22.3987 469.315 25.5854C470.195 28.7854 470.635 33.2654 470.635 39.0254C470.635 44.8654 470.195 49.4054 469.315 52.6454Z" fill="#1E1E1E"/>
<path d="M548.395 1.08533V45.4853C548.395 49.5653 548.035 52.7653 547.315 55.0853C546.595 57.4053 545.315 59.0253 543.415 59.9453C541.515 60.8653 538.83 61.3253 535.315 61.3253C531.548 61.3253 528.628 60.8653 526.555 59.9453C525.527 59.4942 524.609 58.8265 523.864 57.9876C523.118 57.1488 522.562 56.1588 522.235 55.0853C521.432 52.752 521.032 49.552 521.035 45.4853V1.08533H501.835V45.8453C501.835 53.6853 502.795 59.9653 504.715 64.6853C505.632 66.9874 507.002 69.0819 508.744 70.8444C510.486 72.6068 512.564 74.0014 514.855 74.9453C519.695 77.0653 526.515 78.1253 535.315 78.1253C543.792 78.1253 550.352 77.0653 554.995 74.9453C557.222 73.9664 559.234 72.5557 560.912 70.7946C562.591 69.0335 563.904 66.957 564.775 64.6853C566.652 59.9653 567.592 53.6853 567.595 45.8453V1.08533H548.395Z" fill="#1E1E1E"/>
<path d="M642.175 67.1653C639.808 63.6853 637.428 60.4653 635.035 57.5053C632.642 54.5453 630.442 52.4253 628.435 51.1453L628.55 50.7853C633.598 49.7154 638.032 46.7247 640.915 42.4453C644.035 38.0053 645.593 32.672 645.59 26.4453C645.59 18.112 643.41 11.812 639.05 7.54533C634.69 3.27867 627.752 1.12533 618.235 1.08533H581.995V77.0853H601.195V52.7053H603.695C605.157 52.6723 606.62 52.7525 608.07 52.9453C608.995 53.1084 609.841 53.5725 610.475 54.2653C611.463 55.3969 612.365 56.6002 613.175 57.8653L626.13 77.0653H648.455V76.9453C646.625 73.9053 644.532 70.6453 642.175 67.1653ZM623.455 34.7053C621.882 36.292 619.095 37.0853 615.095 37.0853H601.195V16.6853H615.095C619.095 16.6853 621.877 17.4853 623.44 19.0853C625.003 20.6853 625.783 23.2853 625.78 26.8853C625.79 30.4986 625.015 33.1053 623.455 34.7053Z" fill="#1E1E1E"/>
<path d="M678.595 60.7453V1.08533H659.395V77.0853H714.595V60.7453H678.595Z" fill="#1E1E1E"/>
<path d="M763.19 1.08533C760.71 7.56533 758.73 12.7453 757.25 16.6253L753.75 25.7453C752.91 27.9453 752.243 29.7253 751.75 31.0853C751.257 32.4453 750.737 33.8853 750.19 35.4053H749.69C749.13 33.8853 748.61 32.4453 748.13 31.0853C747.65 29.7253 746.983 27.9453 746.13 25.7453L742.63 16.6253C741.15 12.7453 739.17 7.56533 736.69 1.08533H715.69V1.44533L740.29 53.5253V77.0253H759.595V53.5253L784.195 1.44533V1.08533H763.19Z" fill="#1E1E1E"/>
<path d="M148.795 1.10535H167.995V14.0104L148.795 1.10535Z" fill="#4F9746"/>
</svg>
