<svg width="32" height="36" viewBox="0 0 32 36" fill="none" xmlns="http://www.w3.org/2000/svg">
<path d="M1.74119e-07 11.6678V23.4989C0.000260988 24.5085 0.266227 25.5003 0.771177 26.3745C1.27613 27.2488 2.00228 27.9748 2.87666 28.4795L13.122 34.3951C13.9967 34.8997 14.9888 35.1653 15.9987 35.1653C17.0085 35.1653 18.0006 34.8997 18.8753 34.3951L29.1233 28.4809C29.9977 27.9761 30.7239 27.2501 31.2288 26.3759C31.7338 25.5016 31.9997 24.5098 32 23.5002V11.6678C31.9997 10.6582 31.7338 9.66642 31.2288 8.79215C30.7239 7.91788 29.9977 7.1919 29.1233 6.68716L18.8753 0.77028C18.0006 0.265649 17.0085 0 15.9987 0C14.9888 0 13.9967 0.265649 13.122 0.77028L2.87397 6.68581C1.99988 7.19101 1.27414 7.91735 0.769666 8.79186C0.26519 9.66636 -0.000248182 10.6582 1.74119e-07 11.6678Z" fill="#1E1E1E"/>
<path d="M19.398 9.15356V15.9631C19.3992 16.6662 19.4458 17.3685 19.5373 18.0659C19.6339 18.8005 19.771 19.5295 19.948 20.2497L19.8624 20.3538C19.5881 19.8182 19.3414 19.3538 19.1223 18.9606C18.9032 18.5675 18.6658 18.17 18.4101 17.7683C18.1548 17.3656 17.8353 16.8876 17.4514 16.3342L12.5217 9.15356H8.16626V26.1147H12.5523V19.5776C12.5523 18.8812 12.5249 18.1621 12.4702 17.4203C12.4014 16.6071 12.2453 15.8032 12.0044 15.022L12.0865 14.9151C12.3604 15.4512 12.6068 15.9156 12.8259 16.3083C13.045 16.701 13.2824 17.0939 13.5381 17.487C13.7925 17.8784 14.1113 18.3605 14.4947 18.9334L19.4252 26.1147H23.7813V9.15356H19.398Z" fill="#FCFCFC"/>
<path d="M12.0838 14.9144C12.0838 14.9144 9.17227 9.14676 8.16626 9.15357V17.7642C8.16626 17.7642 10.0738 14.5018 12.0838 14.9144Z" fill="url(#paint0_linear_12_2080)"/>
<path d="M19.8624 20.3539C19.8624 20.3539 22.7739 26.1209 23.7799 26.1147V17.5034C23.7799 17.5034 21.8737 20.7665 19.8624 20.3539Z" fill="url(#paint1_linear_12_2080)"/>
<defs>
<linearGradient id="paint0_linear_12_2080" x1="7.35859" y1="6.73055" x2="10.3201" y2="14.9419" gradientUnits="userSpaceOnUse">
<stop stop-color="#4F9746"/>
<stop offset="1" stop-color="#4F9746" stop-opacity="0"/>
</linearGradient>
<linearGradient id="paint1_linear_12_2080" x1="21.6275" y1="20.461" x2="24.7235" y2="29.0762" gradientUnits="userSpaceOnUse">
<stop stop-color="#4F9746" stop-opacity="0"/>
<stop offset="1" stop-color="#4F9746"/>
</linearGradient>
</defs>
</svg>
